<svg width="18" height="18" viewBox="0 0 48 48" xmlns="http://www.w3.org/2000/svg">
  <path fill="#EA4335" d="M24 9.5c3.54 0 6 1.54 7.38 2.84l5.42-5.33C33.89 3.38 29.49 1.5 24 1.5 14.81 1.5 7.09 6.98 3.69 14.76l6.95 5.4C12.18 14.12 17.52 9.5 24 9.5z"/>
  <path fill="#4285F4" d="M46.5 24.5c0-1.56-.14-3.06-.41-4.5H24v9h12.7c-.55 2.9-2.23 5.36-4.76 7.02l7.39 5.74C43.86 37.5 46.5 31.5 46.5 24.5z"/>
  <path fill="#FBBC05" d="M10.64 28.16A14.4 14.4 0 0 1 9.75 24c0-1.44.25-2.84.7-4.16l-6.95-5.4A22.44 22.44 0 0 0 1.5 24c0 3.63.87 7.06 2.4 10.1l6.74-5.94z"/>
  <path fill="#34A853" d="M24 46.5c6.48 0 11.92-2.14 15.89-5.84l-7.39-5.74C30.6 36.33 27.6 37.5 24 37.5c-6.48 0-11.82-4.62-13.67-10.94l-6.95 5.4C7.09 41.02 14.81 46.5 24 46.5z"/>
  <path fill="none" d="M1.5 1.5h45v45h-45z"/>
</svg>